ffmpeg version 4.2.7-0ubuntu0.1 Copyright (c) 2000-2022 the FFmpeg developers
  built with gcc 9 (Ubuntu 9.4.0-1ubuntu1~20.04.1)
  configuration: --prefix=/usr --extra-version=0ubuntu0.1 --toolchain=hardened --libdir=/usr/lib/x86_64-linux-gnu --incdir=/usr/include/x86_64-linux-gnu --arch=amd64 --enable-gpl --disable-stripping --enable-avresample --disable-filter=resample --enable-avisynth --enable-gnutls --enable-ladspa --enable-libaom --enable-libass --enable-libbluray --enable-libbs2b --enable-libcaca --enable-libcdio --enable-libcodec2 --enable-libflite --enable-libfontconfig --enable-libfreetype --enable-libfribidi --enable-libgme --enable-libgsm --enable-libjack --enable-libmp3lame --enable-libmysofa --enable-libopenjpeg --enable-libopenmpt --enable-libopus --enable-libpulse --enable-librsvg --enable-librubberband --enable-libshine --enable-libsnappy --enable-libsoxr --enable-libspeex --enable-libssh --enable-libtheora --enable-libtwolame --enable-libvidstab --enable-libvorbis --enable-libvpx --enable-libwavpack --enable-libwebp --enable-libx265 --enable-libxml2 --enable-libxvid --enable-libzmq --enable-libzvbi --enable-lv2 --enable-omx --enable-openal --enable-opencl --enable-opengl --enable-sdl2 --enable-libdc1394 --enable-libdrm --enable-libiec61883 --enable-nvenc --enable-chromaprint --enable-frei0r --enable-libx264 --enable-shared
  libavutil      56. 31.100 / 56. 31.100
  libavcodec     58. 54.100 / 58. 54.100
  libavformat    58. 29.100 / 58. 29.100
  libavdevice    58.  8.100 / 58.  8.100
  libavfilter     7. 57.100 /  7. 57.100
  libavresample   4.  0.  0 /  4.  0.  0
  libswscale      5.  5.100 /  5.  5.100
  libswresample   3.  5.100 /  3.  5.100
  libpostproc    55.  5.100 / 55.  5.100
Routing option strict to both codec and muxer layer
[mov,mp4,m4a,3gp,3g2,mj2 @ 0x55ce9ad60c80] st: 0 edit list: 1 Missing key frame while searching for timestamp: 307
[mov,mp4,m4a,3gp,3g2,mj2 @ 0x55ce9ad60c80] st: 0 edit list 1 Cannot find an index entry before timestamp: 307.
[h264 @ 0x55ce9ad62b00] Reinit context to 1920x1088, pix_fmt: yuvj420p
Input #0, mov,mp4,m4a,3gp,3g2,mj2, from '/var/www/html/project/media/video/original/1000089494.mp4':
  Metadata:
    major_brand     : mp42
    minor_version   : 0
    compatible_brands: isommp42
    creation_time   : 2025-03-31T13:42:13.000000Z
    com.android.version: 15
    com.android.capture.fps: 30.000000
  Duration: 00:00:15.30, start: 0.000000, bitrate: 15823 kb/s
    Stream #0:0(eng): Video: h264 (High), 1 reference frame (avc1 / 0x31637661), yuvj420p(pc, bt470bg/bt470bg/smpte170m, left), 1920x1080 (1920x1088), 15619 kb/s, 30.08 fps, 30 tbr, 90k tbn, 60 tbc (default)
    Metadata:
      creation_time   : 2025-03-31T13:42:13.000000Z
      handler_name    : VideoHandle
    Stream #0:1(eng): Audio: aac (LC) (mp4a / 0x6134706D), 48000 Hz, stereo, fltp, 96 kb/s (default)
    Metadata:
      creation_time   : 2025-03-31T13:42:13.000000Z
      handler_name    : SoundHandle
Input #1, png_pipe, from '/var/www/html/project/static/images/templates/logo.png':
  Duration: N/A, bitrate: N/A
    Stream #1:0: Video: png, 1 reference frame, rgba(pc), 1920x1080 [SAR 2835:2835 DAR 16:9], 25 tbr, 25 tbn, 25 tbc
[Parsed_scale_0 @ 0x55ce9adc1040] w:1280 h:720 flags:'bilinear' interl:0
[Parsed_scale_2 @ 0x55ce9ad74800] w:1280 h:720 flags:'bilinear' interl:0
Stream mapping:
  Stream #0:0 (h264) -> scale (graph 0)
  Stream #1:0 (png) -> scale (graph 0)
  overlay (graph 0) -> Stream #0:0 (libx264)
  Stream #0:1 -> #0:1 (aac (native) -> aac (native))
Press [q] to stop, [?] for help
[graph_1_in_0_1 @ 0x55ce9b13a740] tb:1/48000 samplefmt:fltp samplerate:48000 chlayout:0x3
[h264 @ 0x55ce9ad95080] Reinit context to 1920x1088, pix_fmt: yuvj420p
[Parsed_scale_0 @ 0x55ce9bded9c0] w:1280 h:720 flags:'bilinear' interl:0
[Parsed_scale_2 @ 0x55ce9bdf2840] w:1280 h:720 flags:'bilinear' interl:0
[graph 0 input from stream 0:0 @ 0x55ce9bdf4100] w:1920 h:1080 pixfmt:yuvj420p tb:1/90000 fr:30/1 sar:0/1 sws_param:flags=2
[graph 0 input from stream 1:0 @ 0x55ce9bdf3b00] w:1920 h:1080 pixfmt:rgba tb:1/25 fr:25/1 sar:2835/2835 sws_param:flags=2
[swscaler @ 0x55ce9bdfb000] deprecated pixel format used, make sure you did set range correctly
[Parsed_scale_0 @ 0x55ce9bded9c0] w:1920 h:1080 fmt:yuvj420p sar:0/1 -> w:1280 h:720 fmt:yuvj420p sar:0/1 flags:0x2
[Parsed_setsar_1 @ 0x55ce9bdf0240] w:1280 h:720 sar:0/1 dar:16/9 -> sar:1/1 dar:16/9
[Parsed_scale_2 @ 0x55ce9bdf2840] w:1920 h:1080 fmt:rgba sar:2835/2835 -> w:1280 h:720 fmt:yuva420p sar:1/1 flags:0x2
[Parsed_setsar_3 @ 0x55ce9bdf2d40] w:1280 h:720 sar:1/1 dar:16/9 -> sar:1/1 dar:16/9
[Parsed_overlay_4 @ 0x55ce9bdf3340] main w:1280 h:720 fmt:yuvj420p overlay w:1280 h:720 fmt:yuva420p
[Parsed_overlay_4 @ 0x55ce9bdf3340] [framesync @ 0x55ce9bdf34a8] Selected 1/90000 time base
[Parsed_overlay_4 @ 0x55ce9bdf3340] [framesync @ 0x55ce9bdf34a8] Sync level 2
[libx264 @ 0x55ce9ad72b40] using SAR=1/1
[libx264 @ 0x55ce9ad72b40] using cpu capabilities: MMX2 SSE2Fast SSSE3 SSE4.2 AVX FMA3 BMI2 AVX2
[libx264 @ 0x55ce9ad72b40] profile High, level 3.1
[libx264 @ 0x55ce9ad72b40] 264 - core 155 r2917 0a84d98 - H.264/MPEG-4 AVC codec - Copyleft 2003-2018 - http://www.videolan.org/x264.html - options: cabac=1 ref=1 deblock=1:0:0 analyse=0x3:0x113 me=hex subme=2 psy=1 psy_rd=1.00:0.00 mixed_ref=0 me_range=16 chroma_me=1 trellis=0 8x8dct=1 cqm=0 deadzone=21,11 fast_pskip=1 chroma_qp_offset=0 threads=22 lookahead_threads=5 sliced_threads=0 nr=0 decimate=1 interlaced=0 bluray_compat=0 constrained_intra=0 bframes=3 b_pyramid=2 b_adapt=1 b_bias=0 direct=1 weightb=1 open_gop=0 weightp=1 keyint=250 keyint_min=25 scenecut=40 intra_refresh=0 rc_lookahead=10 rc=crf mbtree=1 crf=18.0 qcomp=0.60 qpmin=0 qpmax=69 qpstep=4 ip_ratio=1.40 aq=1:1.00
Output #0, mp4, to '/var/www/html/project/media/video/watermarks/1000089494.mp4':
  Metadata:
    major_brand     : mp42
    minor_version   : 0
    compatible_brands: isommp42
    com.android.capture.fps: 30.000000
    com.android.version: 15
    encoder         : Lavf58.29.100
    Stream #0:0: Video: h264 (libx264), 1 reference frame (avc1 / 0x31637661), yuvj420p(pc), 1280x720 [SAR 1:1 DAR 16:9], q=-1--1, 30 fps, 15360 tbn, 30 tbc (default)
    Metadata:
      encoder         : Lavc58.54.100 libx264
    Side data:
      cpb: bitrate max/min/avg: 0/0/0 buffer size: 0 vbv_delay: -1
    Stream #0:1(eng): Audio: aac (LC) (mp4a / 0x6134706D), 48000 Hz, stereo, fltp, delay 1024, 128 kb/s (default)
    Metadata:
      creation_time   : 2025-03-31T13:42:13.000000Z
      handler_name    : SoundHandle
      encoder         : Lavc58.54.100 aac
[Parsed_overlay_4 @ 0x55ce9bdf3340] [framesync @ 0x55ce9bdf34a8] Sync level 0
No more output streams to write to, finishing.
frame=  456 fps= 47 q=-1.0 Lsize=   11176kB time=00:00:15.29 bitrate=5985.3kbits/s speed=1.58x    
[AVIOContext @ 0x55ce9ad60b40] Statistics: 0 seeks, 19 writeouts
video:10916kB audio:241kB subtitle:0kB other streams:0kB global headers:0kB muxing overhead: 0.158756%
Input file #0 (/var/www/html/project/media/video/original/1000089494.mp4):
  Input stream #0:0 (video): 457 packets read (29665082 bytes); 456 frames decoded; 
  Input stream #0:1 (audio): 717 packets read (183552 bytes); 717 frames decoded (734208 samples); 
  Total: 1174 packets (29848634 bytes) demuxed
Input file #1 (/var/www/html/project/static/images/templates/logo.png):
  Input stream #1:0 (video): 1 packets read (111578 bytes); 1 frames decoded; 
  Total: 1 packets (111578 bytes) demuxed
Output file #0 (/var/www/html/project/media/video/watermarks/1000089494.mp4):
  Output stream #0:0 (video): 456 frames encoded; 456 packets muxed (11178467 bytes); 
  Output stream #0:1 (audio): 717 frames encoded (734208 samples); 718 packets muxed (247264 bytes); 
  Total: 1174 packets (11425731 bytes) muxed
[AVIOContext @ 0x55ce9ad74680] Statistics: 2 seeks, 47 writeouts
[libx264 @ 0x55ce9ad72b40] frame I:2     Avg QP:18.05  size:218270
[libx264 @ 0x55ce9ad72b40] frame P:115   Avg QP:20.32  size: 63245
[libx264 @ 0x55ce9ad72b40] frame B:339   Avg QP:23.99  size: 10230
[libx264 @ 0x55ce9ad72b40] consecutive B-frames:  0.7%  0.4%  0.7% 98.2%
[libx264 @ 0x55ce9ad72b40] mb I  I16..4: 15.6% 13.1% 71.3%
[libx264 @ 0x55ce9ad72b40] mb P  I16..4:  5.4%  2.1%  1.5%  P16..4: 44.9% 18.2% 17.2%  0.0%  0.0%    skip:10.7%
[libx264 @ 0x55ce9ad72b40] mb B  I16..4:  0.4%  0.1%  0.0%  B16..8: 16.5%  8.2%  2.8%  direct:13.1%  skip:58.9%  L0:24.9% L1:33.4% BI:41.7%
[libx264 @ 0x55ce9ad72b40] 8x8 transform intra:20.4% inter:34.3%
[libx264 @ 0x55ce9ad72b40] coded y,uvDC,uvAC intra: 38.8% 58.8% 19.9% inter: 23.4% 13.2% 2.2%
[libx264 @ 0x55ce9ad72b40] i16 v,h,dc,p:  1% 70%  2% 27%
[libx264 @ 0x55ce9ad72b40] i8 v,h,dc,ddl,ddr,vr,hd,vl,hu:  5% 55% 23%  1%  2%  2%  5%  1%  5%
[libx264 @ 0x55ce9ad72b40] i4 v,h,dc,ddl,ddr,vr,hd,vl,hu: 14% 20% 14%  6% 10%  8% 12%  7% 10%
[libx264 @ 0x55ce9ad72b40] i8c dc,h,v,p: 47% 34% 11%  8%
[libx264 @ 0x55ce9ad72b40] Weighted P-Frames: Y:19.1% UV:4.3%
[libx264 @ 0x55ce9ad72b40] kb/s:5883.04
[aac @ 0x55ce9ad98780] Qavg: 332.821
[AVIOContext @ 0x55ce9ad69ac0] Statistics: 29914186 bytes read, 3 seeks
[AVIOContext @ 0x55ce9adbe1c0] Statistics: 111578 bytes read, 0 seeks
